<svg width="20" height="20" viewBox="0 0 20 20" fill="none" xmlns="http://www.w3.org/2000/svg">
<path d="M19.6354 4.10156L14.5365 0.273438C14.3021 0.0976562 13.9844 0 13.651 0H13.3333V5H20V4.76172C20 4.51563 19.8698 4.27734 19.6354 4.10156ZM11.6667 5.3125V0H1.25C0.557292 0 0 0.417969 0 0.9375V19.0625C0 19.582 0.557292 20 1.25 20H18.75C19.4427 20 20 19.582 20 19.0625V6.25H12.9167C12.2292 6.25 11.6667 5.82812 11.6667 5.3125ZM3.33333 2.8125C3.33333 2.63984 3.51979 2.5 3.75 2.5H7.91667C8.14687 2.5 8.33333 2.63984 8.33333 2.8125V3.4375C8.33333 3.61016 8.14687 3.75 7.91667 3.75H3.75C3.51979 3.75 3.33333 3.61016 3.33333 3.4375V2.8125ZM3.33333 5.9375V5.3125C3.33333 5.13984 3.51979 5 3.75 5H7.91667C8.14687 5 8.33333 5.13984 8.33333 5.3125V5.9375C8.33333 6.11016 8.14687 6.25 7.91667 6.25H3.75C3.51979 6.25 3.33333 6.11016 3.33333 5.9375ZM10.8333 16.2453V17.1875C10.8333 17.3602 10.6469 17.5 10.4167 17.5H9.58333C9.35312 17.5 9.16667 17.3602 9.16667 17.1875V16.2387C8.57865 16.216 8.00677 16.0621 7.53281 15.7953C7.32969 15.6809 7.31927 15.4527 7.50312 15.3211L8.1151 14.8832C8.25937 14.7801 8.47396 14.7754 8.64271 14.8547C8.84427 14.9492 9.07292 15 9.31042 15H10.7745C11.113 15 11.3891 14.7687 11.3891 14.4848C11.3891 14.2523 11.201 14.0477 10.9323 13.9875L8.58854 13.4602C7.62031 13.2422 6.94375 12.5453 6.94375 11.7652C6.94375 10.8074 7.93594 10.0293 9.16615 10.0047V9.0625C9.16615 8.88984 9.3526 8.75 9.58281 8.75H10.4161C10.6464 8.75 10.8328 8.88984 10.8328 9.0625V10.0113C11.4208 10.034 11.9927 10.1875 12.4667 10.4547C12.6698 10.5691 12.6802 10.7973 12.4964 10.9289L11.8844 11.3668C11.7401 11.4699 11.5255 11.4746 11.3568 11.3953C11.1552 11.3004 10.9266 11.25 10.6891 11.25H9.225C8.88646 11.25 8.61042 11.4813 8.61042 11.7652C8.61042 11.9977 8.79844 12.2023 9.06719 12.2625L11.4109 12.7898C12.3792 13.0078 13.0557 13.7047 13.0557 14.4848C13.0557 15.443 12.0635 16.2207 10.8333 16.2453Z" fill="#3766F5"/>
</svg>
