<svg width="20" height="20" viewBox="0 0 20 20" fill="none" xmlns="http://www.w3.org/2000/svg">
<path d="M11 11.6667H10.5V7.08333C10.5 6.85312 10.3881 6.66667 10.25 6.66667H9.82563C9.6775 6.66667 9.53281 6.73958 9.40969 6.87656L8.93062 7.40885C8.9033 7.43917 8.87983 7.47817 8.86156 7.52361C8.84328 7.56905 8.83056 7.62005 8.82412 7.67369C8.81768 7.72734 8.81764 7.78257 8.82401 7.83624C8.83038 7.8899 8.84304 7.94095 8.86125 7.98646L9.13875 8.67969C9.15694 8.72522 9.18034 8.76434 9.2076 8.7948C9.23487 8.82526 9.26547 8.84646 9.29765 8.8572C9.32984 8.86794 9.36298 8.868 9.39518 8.85738C9.42738 8.84676 9.45801 8.82567 9.48531 8.79531L9.5 8.77917V11.6667H9C8.86187 11.6667 8.75 11.8531 8.75 12.0833V12.9167C8.75 13.1469 8.86187 13.3333 9 13.3333H11C11.1381 13.3333 11.25 13.1469 11.25 12.9167V12.0833C11.25 11.8531 11.1381 11.6667 11 11.6667ZM19 0H1C0.447812 0 0 0.746354 0 1.66667V18.3333C0 19.2536 0.447812 20 1 20H19C19.5522 20 20 19.2536 20 18.3333V1.66667C20 0.746354 19.5522 0 19 0ZM1.5 17.5V14.1667C2.60469 14.1667 3.5 15.6589 3.5 17.5H1.5ZM1.5 5.83333V2.5H3.5C3.5 4.34115 2.60469 5.83333 1.5 5.83333ZM10 15.8333C8.34312 15.8333 7 13.2214 7 10C7 6.77812 8.34312 4.16667 10 4.16667C11.6569 4.16667 13 6.77812 13 10C13 13.2224 11.6562 15.8333 10 15.8333ZM18.5 17.5H16.5C16.5 15.6589 17.3953 14.1667 18.5 14.1667V17.5ZM18.5 5.83333C17.3953 5.83333 16.5 4.34115 16.5 2.5H18.5V5.83333Z" fill="#3766F5"/>
</svg>
