<svg width="20" height="20" viewBox="0 0 20 20" fill="none" xmlns="http://www.w3.org/2000/svg">
<path d="M20 10C20 15.5229 15.5229 20 10 20C4.47714 20 0 15.5229 0 10C0 4.47714 4.47714 0 10 0C15.5229 0 20 4.47714 20 10ZM14.2883 8.5754C14.4873 7.2448 13.4741 6.52948 12.0887 6.0523L12.5381 4.2498L11.4408 3.97637L11.0033 5.73137C10.7148 5.65948 10.4185 5.59169 10.1241 5.52452L10.5648 3.75798L9.4681 3.48456L9.01839 5.28641C8.7796 5.23202 8.5452 5.17827 8.3177 5.12173L8.31895 5.11609L6.80564 4.73827L6.51375 5.91012C6.51375 5.91012 7.3279 6.09669 7.31073 6.10823C7.75516 6.21915 7.83548 6.51323 7.82202 6.74633L7.31008 8.79976C7.34073 8.80758 7.3804 8.81883 7.42415 8.83633C7.38758 8.82726 7.34851 8.81726 7.30819 8.80758L6.5906 11.6841C6.53621 11.8191 6.39839 12.0216 6.08774 11.9448C6.09867 11.9607 5.29016 11.7457 5.29016 11.7457L4.7454 13.0016L6.17339 13.3575C6.43903 13.4241 6.69939 13.4938 6.95564 13.5594L6.50153 15.3825L7.59758 15.6559L8.0473 13.8522C8.33797 13.931 8.62947 14.0066 8.92177 14.0791L8.47359 15.8744L9.57089 16.1478L10.025 14.3281C11.8961 14.6822 13.3032 14.5394 13.8954 12.8472C14.3727 11.4847 13.8717 10.6987 12.8872 10.1862C13.6041 10.021 14.1442 9.54948 14.2883 8.5754ZM11.7811 12.0907C11.442 13.4532 9.14774 12.7166 8.40391 12.5319L9.00649 10.1167C9.75028 10.3023 12.1355 10.6698 11.7811 12.0907ZM12.1205 8.55573C11.8111 9.79508 9.90153 9.1654 9.2821 9.01105L9.82839 6.82044C10.4479 6.9748 12.4427 7.2629 12.1205 8.55573Z" fill="#3766F5"/>
</svg>
