<?xml version="1.0" standalone="no"?>
<!DOCTYPE svg PUBLIC "-//W3C//DTD SVG 20010904//EN"
 "http://www.w3.org/TR/2001/REC-SVG-20010904/DTD/svg10.dtd">
<svg version="1.0" xmlns="http://www.w3.org/2000/svg"
 width="640.000000pt" height="480.000000pt" viewBox="0 0 640.000000 480.000000"
 preserveAspectRatio="xMidYMid meet">

<g transform="translate(0.000000,480.000000) scale(0.100000,-0.100000)"
fill="#000000" stroke="none">
<path d="M0 4495 l0 -305 3200 0 3200 0 0 305 0 305 -3200 0 -3200 0 0 -305z"/>
<path d="M2688 3515 c-2 -3 -3 -87 0 -186 3 -105 1 -180 -4 -177 -5 3 -18 2
-29 -2 -21 -8 -16 -9 140 -27 61 -7 70 -11 70 -28 0 -14 -6 -19 -20 -17 -18 2
-18 2 -2 -8 14 -9 17 -27 17 -114 l0 -104 35 -6 c44 -9 179 -26 220 -29 17 -1
36 -6 44 -11 10 -7 12 -6 6 4 -6 9 -4 11 6 4 15 -9 169 -13 169 -4 0 3 23 7
52 8 81 3 47 -10 -60 -24 -85 -11 -119 -11 -276 7 -98 10 -183 19 -188 19 -6
0 -8 -39 -5 -102 3 -62 2 -85 -2 -58 -8 44 -8 44 -10 -20 -1 -63 24 -653 34
-795 2 -38 5 -103 5 -142 0 -40 4 -73 9 -73 5 0 7 14 6 31 -2 23 1 29 12 25
12 -5 13 -2 7 11 -4 10 -9 37 -12 60 -3 36 -1 42 20 49 12 4 39 6 58 6 l35 -2
-1 59 c-1 33 -5 64 -8 70 -4 6 -2 11 4 11 6 0 8 5 4 12 -4 7 -9 122 -11 257
-2 136 -5 254 -7 264 -2 9 0 17 5 17 5 0 5 10 1 23 -11 30 -4 57 15 57 8 0 57
27 109 59 97 61 119 66 157 33 9 -8 17 -26 17 -39 0 -12 5 -23 10 -23 6 0 10
-5 10 -11 0 -5 -4 -7 -10 -4 -6 4 -11 -27 -12 -84 -1 -50 -2 -99 -2 -108 -1
-10 -9 -25 -18 -34 -13 -11 -18 -30 -17 -60 1 -40 2 -41 9 -14 6 28 8 25 15
-25 7 -46 10 -51 16 -30 4 14 8 43 10 65 2 36 2 37 7 10 l5 -30 8 25 c6 17 7
9 3 -25 -3 -39 0 -57 16 -82 11 -18 25 -33 32 -32 10 0 10 2 0 6 -25 10 -43
62 -37 107 6 40 8 42 38 41 56 -3 56 -3 47 -34 -4 -16 -6 -32 -2 -35 3 -3 0
-6 -6 -6 -7 0 -21 15 -32 33 -22 35 -26 32 -8 -7 6 -14 20 -28 30 -32 23 -7
22 -55 -2 -66 -12 -5 -11 -7 3 -7 15 -1 18 -8 15 -48 l-3 -48 -48 -9 c-55 -10
-76 2 -78 43 -2 24 -2 24 -6 3 -3 -13 1 -30 7 -38 9 -10 9 -14 1 -14 -6 0 -11
-8 -11 -17 0 -15 1 -15 13 1 11 16 13 13 16 -25 2 -44 23 -79 48 -79 7 0 13
-4 13 -10 0 -5 -20 -10 -45 -10 -40 0 -45 -2 -45 -23 0 -30 -25 -64 -61 -82
-18 -10 -29 -24 -30 -38 -1 -18 -2 -19 -6 -4 -4 14 -11 17 -26 13 -12 -3 -37
-6 -54 -6 -26 0 -33 -4 -33 -20 0 -11 5 -20 10 -20 6 0 11 -49 12 -122 l2
-123 5 132 c6 140 21 194 21 76 0 -62 2 -71 23 -82 19 -10 19 -11 2 -8 -19 4
-20 -2 -20 -95 1 -88 -1 -98 -17 -98 -13 0 -18 8 -19 28 l-1 27 -7 -30 c-5
-23 -3 -31 9 -33 38 -8 41 -11 23 -32 -22 -26 -43 -26 -36 -1 4 16 1 19 -16
14 -39 -10 -71 25 -122 130 -26 56 -48 97 -49 92 0 -6 22 -56 50 -112 44 -89
54 -103 85 -114 43 -16 44 -25 3 -43 -18 -8 -27 -15 -20 -15 7 -1 21 3 30 8 9
4 33 11 53 15 l35 6 0 -375 -1 -375 -1572 0 -1573 0 0 -305 0 -305 3200 0
3200 0 0 305 0 305 -1556 0 -1556 0 6 508 c5 470 11 670 23 682 2 2 39 9 81
15 l77 11 3 43 c3 42 4 43 34 37 17 -3 35 -6 40 -6 5 0 8 -15 7 -32 -2 -29 10
-140 15 -145 1 -1 12 205 24 459 13 253 21 463 17 466 -3 3 -5 -24 -5 -59 0
-35 -5 -71 -11 -79 -8 -12 -9 -11 -7 5 3 23 -12 24 -96 11 -32 -5 -46 -4 -42
3 4 5 37 13 75 17 l68 6 2 121 c1 66 3 125 4 131 1 7 -23 10 -75 8 -43 -1 -78
1 -78 6 0 5 12 9 28 10 52 2 114 10 119 16 13 12 13 80 1 87 -10 7 -10 9 0 9
8 0 12 20 12 64 0 53 3 65 18 69 12 3 11 5 -6 6 -16 1 -22 6 -20 18 4 21 36
30 108 33 65 2 117 18 62 19 l-33 1 7 173 c7 179 1 229 -9 72 -9 -132 -19
-205 -28 -205 -5 0 -9 7 -9 16 0 8 -4 12 -10 9 -5 -3 -10 -18 -10 -31 0 -42
-25 -21 -28 23 -3 41 -24 63 -39 40 -5 -8 -10 -3 -14 13 -7 23 -7 24 -8 3 -1
-16 -6 -21 -16 -17 -9 4 -18 -1 -22 -12 -6 -16 -7 -16 -14 2 -6 14 -8 9 -8
-18 -2 -70 -21 -39 -23 35 -1 40 -3 55 -5 35 -2 -21 -8 -38 -14 -38 -5 0 -9
-16 -9 -36 l0 -36 -107 8 c-134 11 -170 11 -305 0 l-108 -8 0 51 c0 28 -4 51
-9 51 -10 0 -24 -77 -16 -90 3 -4 -2 -10 -10 -13 -10 -5 -16 4 -20 31 -11 71
-23 117 -24 95 -1 -20 -7 -23 -40 -23 -22 0 -42 5 -44 13 -3 6 -6 -4 -8 -23
-3 -49 -16 64 -18 151 -1 40 -7 72 -16 85 -13 17 -14 1 -11 -143 2 -90 -1
-163 -6 -163 -4 0 -8 1 -8 3 0 2 -6 52 -14 113 -7 60 -13 130 -12 157 1 44 -3
55 -16 42z m505 -352 c-7 -2 -21 -2 -30 0 -10 3 -4 5 12 5 17 0 24 -2 18 -5z
m85 0 c-10 -2 -28 -2 -40 0 -13 2 -5 4 17 4 22 1 32 -1 23 -4z m-185 -10 c-7
-2 -21 -2 -30 0 -10 3 -4 5 12 5 17 0 24 -2 18 -5z m294 1 c-3 -3 -12 -4 -19
-1 -8 3 -5 6 6 6 11 1 17 -2 13 -5z m-409 -11 c-10 -2 -26 -2 -35 0 -10 3 -2
5 17 5 19 0 27 -2 18 -5z m-115 -10 c-7 -2 -19 -2 -25 0 -7 3 -2 5 12 5 14 0
19 -2 13 -5z m442 -2 c22 -5 34 -9 28 -10 -9 -1 -14 -20 -15 -53 l-1 -53 -6
45 -6 45 -65 3 c-89 4 -107 -1 -107 -35 0 -16 -1 -45 -2 -65 l-1 -37 -42 19
c-24 11 -51 20 -60 20 -15 0 -18 9 -18 55 0 48 3 55 23 60 60 13 218 17 272 6z
m125 -67 c0 -34 -4 -53 -10 -49 -5 3 -10 28 -10 56 0 27 5 49 10 49 6 0 10
-25 10 -56z m-523 14 c-3 -7 -5 -2 -5 12 0 14 2 19 5 13 2 -7 2 -19 0 -25z
m630 -50 c-2 -18 -4 -6 -4 27 0 33 2 48 4 33 2 -15 2 -42 0 -60z m-179 47 c-3
-3 -9 2 -12 12 -6 14 -5 15 5 6 7 -7 10 -15 7 -18z m-308 -135 c-30 -4 -76
-10 -103 -13 -26 -3 -51 -9 -56 -12 -5 -3 -12 -1 -16 4 -7 12 98 28 185 28 44
1 44 0 -10 -7z m508 -11 c24 -8 22 -8 -10 -5 -21 3 -40 0 -43 -5 -4 -5 -12 -9
-18 -9 -7 0 -6 4 3 10 11 7 1 10 -35 11 -27 0 -70 4 -95 9 -31 6 -12 7 63 3
59 -3 120 -9 135 -14z m-428 -30 c0 -6 -7 -6 -20 1 -11 6 -20 15 -20 21 0 6 7
6 20 -1 11 -6 20 -15 20 -21z m216 9 c-10 -6 -20 -7 -24 -3 -9 8 20 25 31 18
5 -3 2 -10 -7 -15z m199 -18 c-10 -11 -28 -20 -39 -19 -21 0 -21 0 0 9 12 5
25 13 29 19 3 6 11 11 17 11 6 0 3 -9 -7 -20z m-615 -5 c24 -13 24 -14 4 -15
-12 0 -27 7 -34 15 -16 19 -3 19 30 0z m143 8 c-7 -2 -21 -2 -30 0 -10 3 -4 5
12 5 17 0 24 -2 18 -5z m57 -33 c0 -12 -37 -12 -65 0 -15 7 -10 9 23 9 23 1
42 -3 42 -9z m-12 -96 c6 -2 12 -19 12 -39 0 -28 -8 -42 -37 -70 -57 -54 -69
-48 -77 35 -4 38 -5 74 -2 79 5 8 72 5 104 -5z m304 -61 c-5 -96 -10 -101 -11
-10 -1 42 3 77 7 77 4 0 6 -30 4 -67z m-12 -153 c0 -5 -2 -10 -4 -10 -3 0 -8
5 -11 10 -3 6 -1 10 4 10 6 0 11 -4 11 -10z m-442 -17 c-10 -2 -26 -2 -35 0
-10 3 -2 5 17 5 19 0 27 -2 18 -5z m552 -34 c0 -6 -4 -7 -10 -4 -5 3 -10 11
-10 16 0 6 5 7 10 4 6 -3 10 -11 10 -16z m-30 1 c0 -5 -4 -10 -10 -10 -5 0
-10 5 -10 10 0 6 5 10 10 10 6 0 10 -4 10 -10z m91 -56 c6 -3 0 -95 -6 -102
-2 -2 -18 0 -37 3 -35 7 -35 7 -37 62 l-2 55 38 -7 c21 -4 41 -9 44 -11z
m-141 -419 c-7 -8 -21 -15 -31 -15 -12 0 -16 -5 -13 -15 8 -21 1 -19 -21 5
-17 18 -17 20 -2 14 9 -3 17 -1 17 4 0 10 20 18 49 21 11 1 11 -2 1 -14z m47
-61 c-3 -3 -12 -4 -19 -1 -8 3 -5 6 6 6 11 1 17 -2 13 -5z m-268 -321 c1 -17
-3 -35 -9 -38 -6 -4 -10 16 -9 52 0 42 3 52 9 38 5 -11 9 -34 9 -52z"/>
<path d="M3740 3510 c0 -5 5 -10 11 -10 5 0 7 5 4 10 -3 6 -8 10 -11 10 -2 0
-4 -4 -4 -10z"/>
<path d="M2813 3493 c15 -2 39 -2 55 0 15 2 2 4 -28 4 -30 0 -43 -2 -27 -4z"/>
<path d="M3588 3493 c7 -3 16 -2 19 1 4 3 -2 6 -13 5 -11 0 -14 -3 -6 -6z"/>
<path d="M2040 3402 c0 -18 4 -32 9 -32 5 0 7 12 5 27 -7 39 -14 42 -14 5z"/>
<path d="M4276 3410 c-3 -8 -12 -76 -21 -150 -23 -197 -23 -198 -57 -216 -16
-8 -43 -16 -59 -16 -33 -1 -41 -28 -8 -28 18 0 20 -5 17 -37 l-3 -37 44 -3
c24 -2 61 -8 83 -14 22 -5 41 -9 43 -7 9 9 32 303 24 306 -5 2 -9 11 -9 20 0
15 2 15 10 2 8 -13 10 -12 10 3 0 9 -6 17 -14 17 -17 0 -18 -3 -42 -128 -10
-50 -21 -89 -24 -85 -8 9 6 248 19 315 8 45 -2 90 -13 58z"/>
<path d="M2090 3400 c-12 -8 -10 -10 8 -10 13 0 20 4 17 10 -7 12 -6 12 -25 0z"/>
<path d="M4330 3391 c15 -29 27 -33 33 -12 3 12 -1 22 -10 25 -27 11 -34 7
-23 -13z"/>
<path d="M2055 3290 c3 -41 8 -88 10 -105 2 -16 6 -66 9 -110 4 -44 10 -100
13 -124 4 -31 2 -42 -6 -37 -6 4 -11 26 -11 48 0 23 -3 39 -6 36 -3 -4 -2 -43
2 -88 6 -70 10 -83 28 -90 20 -8 20 -9 1 -10 l-20 -1 20 -9 c11 -5 15 -9 8 -9
-6 -1 -19 -4 -29 -8 -12 -4 -15 -3 -10 5 4 7 1 15 -7 18 -10 3 -18 27 -22 67
-4 34 -10 66 -13 72 -3 5 -5 26 -4 45 2 29 1 32 -8 17 -6 -9 -14 -48 -16 -85
-5 -67 6 -178 67 -671 17 -134 28 -249 25 -256 -2 -7 -2 -16 1 -19 11 -11 14
-74 3 -81 -5 -3 -10 4 -10 17 -2 62 -7 105 -14 120 -4 10 -6 23 -3 30 2 7 0
20 -4 30 -5 9 -11 40 -13 70 -3 29 -7 69 -10 88 -3 19 -15 105 -27 190 -39
300 -61 435 -71 445 -11 12 -17 64 72 -660 93 -755 100 -806 105 -832 5 -21 6
-22 35 -5 28 16 39 32 22 32 -4 0 -12 -3 -18 -7 -5 -5 -2 -1 8 8 13 13 14 19
5 29 -7 7 -7 10 -1 7 6 -3 20 0 32 9 17 12 19 19 12 42 -4 15 -11 40 -15 55
-5 25 -3 28 14 22 11 -3 22 -1 26 4 3 6 19 8 36 4 19 -3 36 0 47 9 9 8 31 20
49 27 17 7 40 22 50 33 14 16 9 14 -21 -6 -55 -37 -64 -34 -69 22 l-3 47 -2
-49 c-2 -47 -3 -48 -29 -42 -69 15 -77 16 -65 10 6 -3 12 -12 12 -20 0 -11 -5
-11 -25 -2 -26 12 -33 28 -12 28 6 0 4 5 -5 11 -21 12 -24 59 -6 77 7 7 20 12
30 12 14 0 18 -9 20 -42 1 -38 2 -35 7 16 6 55 8 59 33 62 23 2 27 -2 31 -29
4 -31 4 -30 5 6 1 20 6 37 11 37 5 0 11 9 14 20 4 14 14 20 34 20 47 0 58 14
58 70 0 46 -2 51 -20 46 -11 -3 -30 -6 -42 -6 -19 0 -21 -4 -17 -44 3 -28 0
-47 -9 -54 -10 -9 -13 -4 -15 23 -2 21 2 35 9 35 9 0 9 3 0 14 -6 7 -39 17
-73 20 -34 4 -70 12 -80 17 -12 6 -18 6 -18 -1 0 -5 6 -10 13 -10 13 0 -12
-20 -25 -20 -12 0 -9 35 3 47 9 9 -16 515 -37 746 -7 67 -6 67 18 67 30 0 53
-23 44 -45 -6 -17 9 -21 19 -5 11 18 -22 58 -54 65 -31 7 -41 32 -41 101 0 33
1 34 38 34 22 0 76 -5 121 -11 45 -6 84 -10 85 -8 2 2 -1 19 -6 36 -9 33 -27
43 -87 48 -57 4 -59 5 -55 23 3 9 1 35 -5 57 l-9 40 -1 -52 c-1 -29 -5 -53
-11 -53 -5 0 -10 1 -10 3 0 13 -31 169 -39 192 l-9 30 -1 -37 c-1 -21 -5 -38
-11 -38 -5 0 -11 -17 -11 -37 -1 -34 -3 -31 -11 17 -5 30 -9 70 -9 88 0 17 -3
32 -8 32 -4 0 -6 13 -3 29 2 16 -1 37 -8 48 -9 14 -10 2 -5 -57z m273 -312
c16 -16 15 -48 0 -48 -32 0 -59 14 -54 26 3 9 -1 11 -12 7 -13 -4 -12 -2 3 10
24 20 47 21 63 5z m-228 -99 c0 -6 -4 -7 -10 -4 -5 3 -10 11 -10 16 0 6 5 7
10 4 6 -3 10 -11 10 -16z m-3 -41 c-3 -8 -6 -5 -6 6 -1 11 2 17 5 13 3 -3 4
-12 1 -19z m-21 -110 c-7 -5 -7 -8 0 -8 5 0 16 6 23 13 11 10 13 9 9 -3 -3 -8
-14 -16 -25 -18 -26 -4 -43 36 -22 49 17 10 32 -22 15 -33z m34 -205 c0 -5 7
-74 16 -155 15 -129 14 -191 -1 -176 -4 4 -44 303 -45 331 0 4 7 7 15 7 8 0
15 -3 15 -7z m74 -669 c6 -50 -1 -75 -15 -53 -11 18 -12 112 0 105 4 -3 11
-26 15 -52z m-80 -18 c-3 -15 -8 -25 -11 -23 -2 3 -1 17 3 31 3 15 8 25 11 23
2 -3 1 -17 -3 -31z m3 -68 c-3 -7 -5 -2 -5 12 0 14 2 19 5 13 2 -7 2 -19 0
-25z m86 6 c8 -8 -3 -34 -14 -34 -5 0 -9 9 -9 20 0 19 11 26 23 14z m-66 -126
c-3 -7 -5 -2 -5 12 0 14 2 19 5 13 2 -7 2 -19 0 -25z m183 -28 c10 0 11 -3 3
-11 -14 -14 -55 -8 -61 10 -4 10 1 12 19 8 13 -4 31 -7 39 -7z m-145 -30 c1
-10 -2 -17 -7 -14 -4 3 -8 15 -8 26 0 26 13 15 15 -12z m55 20 c8 -5 12 -12 9
-15 -8 -8 -39 5 -39 16 0 11 11 11 30 -1z"/>
<path d="M4326 3293 c-6 -14 -5 -15 5 -6 7 7 10 15 7 18 -3 3 -9 -2 -12 -12z"/>
<path d="M1885 3220 c3 -5 10 -10 16 -10 5 0 9 5 9 10 0 6 -7 10 -16 10 -8 0
-12 -4 -9 -10z"/>
<path d="M1960 3219 c0 -11 27 -12 34 -1 2 4 -4 9 -15 9 -10 1 -19 -2 -19 -8z"/>
<path d="M4378 3223 c7 -3 16 -2 19 1 4 3 -2 6 -13 5 -11 0 -14 -3 -6 -6z"/>
<path d="M4456 3215 c4 -8 8 -15 10 -15 2 0 4 7 4 15 0 8 -4 15 -10 15 -5 0
-7 -7 -4 -15z"/>
<path d="M1992 3155 c0 -16 2 -22 5 -12 2 9 2 23 0 30 -3 6 -5 -1 -5 -18z"/>
<path d="M2430 3135 c0 -10 9 -15 28 -14 23 2 24 2 4 6 -12 2 -20 9 -17 14 4
5 1 9 -4 9 -6 0 -11 -7 -11 -15z"/>
<path d="M3806 3128 c-52 -6 -95 -16 -103 -24 -12 -12 -10 -14 19 -14 70 1
260 28 271 39 13 13 -55 13 -187 -1z"/>
<path d="M2002 3080 c0 -14 2 -19 5 -12 2 6 2 18 0 25 -3 6 -5 1 -5 -13z"/>
<path d="M4160 3073 c0 -27 22 -30 41 -6 12 15 12 16 -5 10 -12 -5 -23 -3 -28
5 -5 9 -8 6 -8 -9z"/>
<path d="M4358 3000 c-14 -116 -29 -216 -38 -245 -8 -27 -9 -26 -5 12 2 34 0
42 -16 46 -25 7 -25 27 0 22 14 -2 20 3 24 20 2 14 1 22 -3 20 -4 -2 -65 2
-136 10 -71 8 -136 15 -146 15 -13 0 -17 -15 -23 -85 -7 -80 -6 -86 15 -103
l23 -19 -12 -259 c-6 -142 -13 -292 -16 -333 -4 -60 -2 -76 11 -86 15 -10 15
-16 0 -74 -9 -35 -14 -67 -10 -72 3 -5 0 -9 -6 -9 -6 0 -15 10 -20 23 -6 16
-9 18 -9 5 -1 -10 5 -23 13 -30 9 -9 13 -32 11 -73 -3 -59 -3 -60 4 -10 6 44
7 47 12 20 l6 -30 2 32 c1 28 4 33 26 31 14 -1 25 -5 25 -9 0 -4 13 -12 29
-17 24 -9 28 -14 23 -37 -2 -15 -11 -29 -18 -32 -7 -2 -10 -11 -8 -18 12 -31
-68 -47 -85 -17 -6 9 -11 12 -11 7 0 -18 23 -35 47 -35 24 0 49 21 91 74 12
16 25 27 28 24 8 -9 -16 -210 -28 -234 -14 -29 -7 -57 17 -64 32 -8 60 -28 53
-36 -4 -4 -14 -1 -23 6 -12 10 -15 10 -15 -4 0 -10 5 -14 10 -11 6 3 15 -6 21
-22 10 -27 11 -27 22 -8 6 11 12 36 13 55 4 60 6 83 98 830 62 501 81 673 71
640 -5 -16 -91 -651 -150 -1110 -19 -146 -37 -284 -40 -308 -4 -27 -11 -42
-18 -39 -13 4 -14 18 -4 97 4 30 9 80 12 110 3 30 8 66 9 80 5 31 22 170 35
275 103 841 111 914 102 980 l-7 50 -6 -55z m-248 -128 c0 -5 -7 -9 -15 -9 -8
0 -15 4 -15 9 0 4 7 8 15 8 8 0 15 -4 15 -8z m73 -9 c13 -8 7 -19 -24 -42 -18
-13 -28 -18 -24 -11 6 10 4 12 -8 7 -9 -3 -16 -3 -16 1 3 19 -2 25 -11 12 -7
-10 -10 -11 -10 -2 0 7 11 18 25 24 19 8 22 14 13 20 -13 8 39 0 55 -9z m70
-140 c3 -5 -8 -8 -23 -8 -16 0 -32 3 -36 8 -4 4 7 7 24 7 17 0 33 -3 35 -7z
m47 -27 c0 -2 2 -11 5 -19 4 -8 0 -14 -9 -14 -8 0 -13 4 -10 8 2 4 -8 12 -23
17 l-28 10 33 1 c17 1 32 -1 32 -3z m-214 -56 c10 0 14 -14 14 -51 0 -43 -2
-48 -14 -36 -8 8 -17 36 -20 63 -3 27 -3 43 0 37 3 -7 12 -13 20 -13z m91 -21
c6 -6 8 -23 3 -44 -4 -19 -6 -36 -3 -38 2 -3 -1 -8 -6 -12 -13 -7 -17 3 -25
63 -6 43 6 56 31 31z m-44 -46 c3 -24 1 -43 -4 -43 -5 0 -9 21 -9 47 0 56 5
54 13 -4z m-19 -471 c11 -19 -11 -67 -32 -70 -26 -4 -28 6 -7 34 8 10 14 24
15 29 0 6 -5 3 -10 -5 -8 -13 -10 -12 -10 3 0 17 34 25 44 9z m-8 -134 c-3
-18 -7 -46 -9 -63 -2 -31 -21 -42 -47 -26 -12 8 -11 14 10 37 19 20 21 26 8
21 -12 -4 -18 -1 -18 9 0 28 20 54 41 54 19 0 20 -4 15 -32z m94 -62 c0 -3 -4
-8 -10 -11 -5 -3 -10 -1 -10 4 0 6 5 11 10 11 6 0 10 -2 10 -4z m-120 -62 c0
-2 -9 -4 -20 -4 -11 0 -20 4 -20 9 0 5 9 7 20 4 11 -3 20 -7 20 -9z m88 -70
c-7 -15 -14 -21 -16 -15 -2 7 2 18 8 26 18 22 21 18 8 -11z"/>
<path d="M2051 3024 c0 -11 3 -14 6 -6 3 7 2 16 -1 19 -3 4 -6 -2 -5 -13z"/>
<path d="M4432 2970 c0 -14 2 -19 5 -12 2 6 2 18 0 25 -3 6 -5 1 -5 -13z"/>
<path d="M2398 2913 c7 -3 16 -2 19 1 4 3 -2 6 -13 5 -11 0 -14 -3 -6 -6z"/>
<path d="M2441 2837 c-1 -61 -3 -68 -19 -63 -10 3 -38 -1 -62 -9 l-45 -15 70
6 c38 3 70 6 72 7 1 1 -2 34 -6 72 l-8 70 -2 -68z"/>
<path d="M2843 2765 c0 -27 2 -38 4 -22 2 15 2 37 0 50 -2 12 -4 0 -4 -28z"/>
<path d="M3622 2770 c0 -19 2 -27 5 -17 2 9 2 25 0 35 -3 9 -5 1 -5 -18z"/>
<path d="M2243 2743 c9 -2 25 -2 35 0 9 3 1 5 -18 5 -19 0 -27 -2 -17 -5z"/>
<path d="M2419 2453 c-10 -12 -10 -14 -1 -9 14 9 15 5 3 -27 -15 -38 1 -51 32
-27 15 12 27 26 27 32 0 6 -9 0 -21 -13 l-20 -24 6 37 c6 41 -6 56 -26 31z"/>
<path d="M2363 2408 c-3 -46 6 -48 29 -8 16 28 16 30 0 30 -14 0 -15 2 -2 10
12 7 11 9 -5 8 -16 -2 -20 -10 -22 -40z"/>
<path d="M3246 2329 c-11 -35 -15 -79 -7 -79 11 0 26 79 17 87 -3 3 -7 0 -10
-8z"/>
<path d="M3400 2314 c0 -6 7 -19 16 -30 14 -18 14 -18 3 6 -14 31 -19 36 -19
24z"/>
<path d="M3361 2254 c0 -11 3 -14 6 -6 3 7 2 16 -1 19 -3 4 -6 -2 -5 -13z"/>
<path d="M3380 2210 c6 -11 15 -20 20 -20 6 0 2 9 -7 20 -10 11 -19 20 -21 20
-1 0 2 -9 8 -20z"/>
<path d="M3302 2185 c0 -16 2 -22 5 -12 2 9 2 23 0 30 -3 6 -5 -1 -5 -18z"/>
<path d="M3301 2004 c0 -11 3 -14 6 -6 3 7 2 16 -1 19 -3 4 -6 -2 -5 -13z"/>
<path d="M2488 1972 c-19 -4 -25 -32 -8 -32 6 0 11 -19 11 -42 1 -40 2 -39 10
16 5 33 8 60 6 61 -1 1 -10 0 -19 -3z"/>
<path d="M4012 1930 c0 -14 2 -19 5 -12 2 6 2 18 0 25 -3 6 -5 1 -5 -13z"/>
<path d="M3946 1880 c4 -14 8 -36 10 -48 4 -41 12 -35 15 11 2 25 0 43 -5 40
-4 -3 -13 1 -18 8 -6 10 -7 6 -2 -11z"/>
<path d="M2482 1800 c0 -19 2 -27 5 -17 2 9 2 25 0 35 -3 9 -5 1 -5 -18z"/>
<path d="M3953 1745 c0 -27 2 -38 4 -22 2 15 2 37 0 50 -2 12 -4 0 -4 -28z"/>
<path d="M2467 1745 c-4 -11 -10 -27 -13 -35 -3 -8 1 -5 11 8 9 12 15 28 13
34 -3 7 -7 4 -11 -7z"/>
<path d="M4040 1753 c0 -6 8 -17 18 -24 16 -13 16 -13 2 6 -8 11 -16 22 -17
24 -2 2 -3 0 -3 -6z"/>
<path d="M3942 1660 c0 -19 2 -27 5 -17 2 9 2 25 0 35 -3 9 -5 1 -5 -18z"/>
<path d="M2931 1665 c0 -5 6 -21 14 -35 8 -14 14 -20 14 -15 0 6 -6 21 -14 35
-8 14 -14 21 -14 15z"/>
<path d="M3563 1595 c0 -33 2 -45 4 -27 2 18 2 45 0 60 -2 15 -4 0 -4 -33z"/>
<path d="M3931 1613 c-1 -6 -4 -20 -7 -30 -5 -17 -5 -17 6 0 6 10 9 23 6 30
-3 9 -5 9 -5 0z"/>
<path d="M2960 1597 c-1 -18 81 -165 95 -171 28 -10 31 -7 7 10 -12 8 -40 50
-62 92 -21 42 -39 74 -40 69z"/>
<path d="M2902 1470 c0 -14 2 -19 5 -12 2 6 2 18 0 25 -3 6 -5 1 -5 -13z"/>
<path d="M2920 1473 c0 -12 30 -73 36 -73 5 0 -24 71 -31 79 -3 2 -5 0 -5 -6z"/>
<path d="M3553 1375 c0 -22 2 -30 4 -17 2 12 2 30 0 40 -3 9 -5 -1 -4 -23z"/>
<path d="M2960 1386 c0 -2 8 -10 18 -17 15 -13 16 -12 3 4 -13 16 -21 21 -21
13z"/>
<path d="M2939 1358 c16 -18 34 -28 50 -27 l26 2 -25 4 c-14 3 -36 14 -50 26
l-25 22 24 -27z"/>
<path d="M2926 1159 c-11 -54 -13 -79 -6 -79 4 0 10 21 14 47 6 48 1 73 -8 32z"/>
<path d="M3525 1145 c10 -62 12 -65 43 -65 69 0 322 64 322 81 0 6 -7 9 -15 5
-25 -9 -174 -44 -256 -59 l-75 -14 -1 35 c-1 19 -6 39 -13 46 -9 8 -10 2 -5
-29z"/>
<path d="M2572 1158 c3 -7 24 -18 48 -25 76 -22 241 -54 258 -51 9 2 -8 10
-38 17 -117 26 -226 54 -248 62 -17 7 -23 6 -20 -3z"/>
</g>
</svg>
